<svg style="background-color: white; padding-top: 20px" width="810" height="244" xmlns="http://www.w3.org/2000/svg" xmlns:xlink="http://www.w3.org/1999/xlink" xml:space="preserve" overflow="hidden"><g transform="translate(-2101 -1122)"><path d="M0.0472178-1.20243 342.131-1.20243 342.131 1.03546 0.0472178 1.03546ZM337.547-13.8335 365.047-0.0834876 337.547 13.6665Z" fill="#505050" transform="matrix(1 0 0 -1 2271 1164)"/><path d="M2310.03 1163.99C2310.03 1185.53 2292.57 1202.99 2271.03 1202.99 2249.49 1202.99 2232.03 1185.53 2232.03 1163.99 2232.03 1142.45 2249.49 1124.99 2271.03 1124.99 2292.57 1124.99 2310.03 1142.45 2310.03 1163.99Z" stroke="#333333" stroke-width="3.92723" stroke-miterlimit="8" fill="#0B0B0B" fill-rule="evenodd"/><text font-family="Arial,Arial_MSFontService,sans-serif" font-weight="400" font-size="41" transform="matrix(1 0 0 1 2133.73 1326)">Input </text><text font-family="Arial,Arial_MSFontService,sans-serif" font-weight="400" font-size="41" transform="matrix(1 0 0 1 2236.86 1326)">vector</text><text font-family="Cambria Math,Cambria Math_MSFontService,sans-serif" font-weight="400" font-size="38" transform="matrix(1 0 0 1 2360.61 1326)">∈</text><text font-family="Cambria Math,Cambria Math_MSFontService,sans-serif" font-weight="400" font-size="38" transform="matrix(1 0 0 1 2395.56 1326)">ℝ</text><text font-family="Arial,Arial_MSFontService,sans-serif" font-weight="400" font-size="41" transform="matrix(1 0 0 1 2423.63 1326)">¹</text><path d="M2715.07 1163.99C2715.07 1185.53 2697.39 1202.99 2675.57 1202.99 2653.76 1202.99 2636.07 1185.53 2636.07 1163.99 2636.07 1142.45 2653.76 1124.99 2675.57 1124.99 2697.39 1124.99 2715.07 1142.45 2715.07 1163.99Z" stroke="#333333" stroke-width="3.92723" stroke-miterlimit="8" fill="#0B0B0B" fill-rule="evenodd"/><text font-family="Arial,Arial_MSFontService,sans-serif" font-weight="400" font-size="41" transform="matrix(1 0 0 1 2538.25 1326)">Output </text><text font-family="Arial,Arial_MSFontService,sans-serif" font-weight="400" font-size="41" transform="matrix(1 0 0 1 2673.46 1326)">vector</text><text font-family="Cambria Math,Cambria Math_MSFontService,sans-serif" font-weight="400" font-size="38" transform="matrix(1 0 0 1 2797.21 1326)">∈</text><text font-family="Cambria Math,Cambria Math_MSFontService,sans-serif" font-weight="400" font-size="38" transform="matrix(1 0 0 1 2832.15 1326)">ℝ</text><text font-family="Arial,Arial_MSFontService,sans-serif" font-weight="400" font-size="41" transform="matrix(1 0 0 1 2860.23 1326)">¹</text></g></svg>