<svg width="2906" style="background-color: white; margin-left: -20px; margin-top: 20px" height="2348" xmlns="http://www.w3.org/2000/svg" xmlns:xlink="http://www.w3.org/1999/xlink" xml:space="preserve" overflow="hidden"><g transform="translate(-578 -156)"><path d="M1039.48 271.433 3003.48 642.433" stroke="#505050" stroke-width="5.45128" stroke-miterlimit="8" fill="none" fill-rule="evenodd"/><path d="M1039.48 271.47 3003.48 1515.47" stroke="#505050" stroke-width="5.45128" stroke-miterlimit="8" fill="none" fill-rule="evenodd"/><path d="M1039.48 1078.47 3003.48 642.467" stroke="#505050" stroke-width="5.45128" stroke-miterlimit="8" fill="none" fill-rule="evenodd"/><path d="M1039.48 1078.5 3003.48 1515.5" stroke="#505050" stroke-width="5.45128" stroke-miterlimit="8" fill="none" fill-rule="evenodd"/><path d="M1039.48 1886.5 3003.48 642.501" stroke="#505050" stroke-width="5.45128" stroke-miterlimit="8" fill="none" fill-rule="evenodd"/><path d="M1039.48 1886.54 3003.48 1515.54" stroke="#505050" stroke-width="5.45128" stroke-miterlimit="8" fill="none" fill-rule="evenodd"/><path d="M1148.39 271.417C1148.39 331.616 1099.59 380.417 1039.39 380.417 979.196 380.417 930.395 331.616 930.395 271.417 930.395 211.218 979.196 162.417 1039.39 162.417 1099.59 162.417 1148.39 211.218 1148.39 271.417Z" stroke="#333333" stroke-width="10.9044" stroke-miterlimit="8" fill="#0A0A0A" fill-rule="evenodd"/><path d="M1148.39 1078.49C1148.39 1138.68 1099.59 1187.49 1039.39 1187.49 979.196 1187.49 930.395 1138.68 930.395 1078.49 930.395 1018.29 979.196 969.485 1039.39 969.485 1099.59 969.485 1148.39 1018.29 1148.39 1078.49Z" stroke="#333333" stroke-width="10.9044" stroke-miterlimit="8" fill="#0A0A0A" fill-rule="evenodd"/><path d="M1148.39 1886.05C1148.39 1946.53 1099.59 1995.55 1039.39 1995.55 979.196 1995.55 930.395 1946.53 930.395 1886.05 930.395 1825.58 979.196 1776.55 1039.39 1776.55 1099.59 1776.55 1148.39 1825.58 1148.39 1886.05Z" stroke="#333333" stroke-width="10.9044" stroke-miterlimit="8" fill="#0A0A0A" fill-rule="evenodd"/><text font-family="Arial,Arial_MSFontService,sans-serif" font-weight="400" font-size="131" transform="matrix(1 0 0 1 657.457 2377)">Input </text><text font-family="Arial,Arial_MSFontService,sans-serif" font-weight="400" font-size="131" transform="matrix(1 0 0 1 984.019 2377)">vector</text><path d="M3112.56 642.449C3112.56 702.648 3063.76 751.449 3003.56 751.449 2943.36 751.449 2894.56 702.648 2894.56 642.449 2894.56 582.25 2943.36 533.449 3003.56 533.449 3063.76 533.449 3112.56 582.25 3112.56 642.449Z" stroke="#333333" stroke-width="10.9044" stroke-miterlimit="8" fill="#0A0A0A" fill-rule="evenodd"/><path d="M3112.56 1515.52C3112.56 1575.72 3063.76 1624.52 3003.56 1624.52 2943.36 1624.52 2894.56 1575.72 2894.56 1515.52 2894.56 1455.32 2943.36 1406.52 3003.56 1406.52 3063.76 1406.52 3112.56 1455.32 3112.56 1515.52Z" stroke="#333333" stroke-width="10.9044" stroke-miterlimit="8" fill="#0A0A0A" fill-rule="evenodd"/><text font-family="Arial,Arial_MSFontService,sans-serif" font-weight="400" font-size="131" transform="matrix(1 0 0 1 2350.46 2377)">Output </text><text font-family="Arial,Arial_MSFontService,sans-serif" font-weight="400" font-size="131" transform="matrix(1 0 0 1 2779 2377)">vector</text><path d="M1428.31 2298.95 1457.74 2298.95 1457.74 2308.93 1428.24 2308.93C1423.51 2308.93 1419.66 2309.19 1416.72 2309.72 1413.78 2310.25 1411.33 2311.1 1409.36 2312.27 1407.4 2313.44 1405.62 2315.1 1404.02 2317.26 1402.41 2319.41 1401.16 2322.05 1400.25 2325.19 1399.34 2328.32 1398.77 2331.88 1398.53 2335.85L1457.74 2335.85 1457.74 2345.82 1398.45 2345.82C1398.69 2350.27 1399.34 2354.22 1400.39 2357.67 1401.45 2361.11 1403.04 2364.04 1405.17 2366.46 1407.3 2368.88 1410.05 2370.66 1413.42 2371.81 1416.79 2372.96 1421.45 2373.53 1427.38 2373.53L1457.74 2373.53 1457.74 2383.51 1427.09 2383.51C1422.4 2383.51 1418.34 2383.22 1414.89 2382.65 1411.45 2382.07 1408.34 2381.14 1405.56 2379.85 1402.79 2378.55 1400.17 2376.6 1397.7 2374 1395.24 2371.39 1393.24 2368.51 1391.71 2365.35 1390.18 2362.19 1389.03 2358.62 1388.26 2354.65 1387.5 2350.68 1387.11 2346.37 1387.11 2341.73 1387.11 2334.17 1387.86 2327.92 1389.34 2322.96 1390.82 2318.01 1393.31 2313.61 1396.8 2309.76 1400.3 2305.9 1404.48 2303.14 1409.36 2301.47 1414.25 2299.79 1420.56 2298.95 1428.31 2298.95Z" fill-rule="evenodd"/><text fill="#000000" fill-opacity="0" font-family="Arial,Arial_MSFontService,sans-serif" font-size="84.5537" x="1387.11" y="2372.94">∈</text><path d="M1581.24 2292.85C1577.94 2292.85 1575.72 2292.9 1574.57 2293L1574.57 2334.56 1580.38 2334.56C1584.5 2334.56 1587.75 2333.67 1590.14 2331.9 1592.54 2330.13 1594.21 2327.7 1595.17 2324.61 1596.12 2321.53 1596.6 2317.71 1596.6 2313.17 1596.6 2306.32 1595.32 2301.23 1592.76 2297.88 1590.2 2294.53 1586.36 2292.85 1581.24 2292.85ZM1554.54 2291.85 1554.54 2377.19 1566.6 2377.19 1566.6 2291.85ZM1593.01 2290.41 1592.66 2291.13C1596.87 2293.71 1599.91 2296.85 1601.77 2300.53 1603.64 2304.22 1604.57 2308.55 1604.57 2313.52 1604.57 2320.46 1603.17 2325.92 1600.37 2329.89 1597.57 2333.86 1593.06 2336.78 1586.84 2338.65L1586.84 2339.51C1587.99 2340.27 1589.02 2341.15 1589.93 2342.13 1590.84 2343.11 1591.67 2344.21 1592.44 2345.43 1593.21 2346.65 1594.31 2348.62 1595.74 2351.35L1604.21 2367.5C1605.22 2369.51 1606.2 2371.38 1607.15 2373.1 1608.11 2374.82 1608.93 2376.19 1609.6 2377.19L1623.88 2377.19 1623.88 2376.47C1622.92 2375.52 1621.87 2374.14 1620.72 2372.35 1619.57 2370.55 1618.64 2368.96 1617.92 2367.57L1611.1 2354.58C1608.85 2350.32 1606.58 2346.97 1604.28 2344.53 1601.99 2342.09 1599.09 2340.25 1595.6 2339.01L1595.6 2336.64C1610.19 2332.67 1617.49 2324.43 1617.49 2311.95 1617.49 2305.96 1615.43 2301.15 1611.32 2297.52 1607.2 2293.88 1601.1 2291.51 1593.01 2290.41ZM1538.18 2285.53 1586.27 2285.53C1596.03 2285.53 1603.69 2286.52 1609.24 2288.51 1614.79 2290.5 1618.94 2293.44 1621.69 2297.34 1624.44 2301.24 1625.82 2306.11 1625.82 2311.95 1625.82 2323.86 1619.43 2332.62 1606.65 2338.22L1606.65 2338.93C1609.09 2340.23 1611.29 2342.04 1613.26 2344.39 1615.22 2346.73 1617.54 2350.35 1620.22 2355.23L1625.53 2364.99C1626.77 2367.24 1627.87 2369.15 1628.83 2370.73 1629.79 2372.31 1630.79 2373.75 1631.85 2375.04 1632.9 2376.33 1633.98 2377.36 1635.08 2378.12 1636.18 2378.89 1637.47 2379.51 1638.95 2379.99L1638.95 2383.51 1604.07 2383.51C1603.4 2382.6 1602.7 2381.53 1601.99 2380.31 1601.27 2379.09 1600.22 2377.17 1598.83 2374.54L1588.28 2354.15C1587.22 2352.19 1586.14 2350.15 1585.01 2348.05 1583.89 2345.94 1582.95 2344.5 1582.21 2343.71 1581.47 2342.92 1580.68 2342.35 1579.84 2342.02 1579.01 2341.69 1577.68 2341.52 1575.86 2341.52L1574.57 2341.52 1574.57 2365.35C1574.57 2368.79 1574.7 2371.29 1574.96 2372.85 1575.23 2374.4 1575.62 2375.58 1576.15 2376.37 1576.67 2377.16 1577.4 2377.81 1578.34 2378.34 1579.27 2378.87 1580.81 2379.42 1582.97 2379.99L1582.97 2383.51 1538.18 2383.51 1538.18 2379.99C1541.14 2379.22 1543.13 2378.38 1544.13 2377.44 1545.14 2376.51 1545.8 2375.18 1546.11 2373.46 1546.42 2371.74 1546.57 2369.1 1546.57 2365.56L1546.57 2303.48C1546.57 2300.17 1546.45 2297.77 1546.22 2296.26 1545.98 2294.75 1545.58 2293.58 1545.03 2292.74 1544.48 2291.91 1543.75 2291.24 1542.84 2290.74 1541.93 2290.23 1540.38 2289.67 1538.18 2289.05Z" fill-rule="evenodd"/><text fill="#000000" fill-opacity="0" font-family="Arial,Arial_MSFontService,sans-serif" font-size="97.9761" x="1538.18" y="2371.26">ℝ</text><path d="M1670.01 2235.27C1672.79 2235.27 1675.4 2235.57 1677.82 2236.16 1680.24 2236.75 1682.34 2237.65 1684.11 2238.85 1685.89 2240.05 1687.27 2241.55 1688.27 2243.35 1689.26 2245.14 1689.75 2247.22 1689.75 2249.59 1689.75 2251.82 1689.44 2253.79 1688.81 2255.49 1688.19 2257.2 1687.22 2258.75 1685.91 2260.14 1684.61 2261.54 1683.01 2262.8 1681.11 2263.93 1679.21 2265.06 1677.02 2266.15 1674.55 2267.2L1674.55 2267.82C1676.88 2268.24 1679.06 2268.91 1681.08 2269.83 1683.1 2270.76 1684.87 2271.92 1686.38 2273.33 1687.9 2274.75 1689.09 2276.37 1689.96 2278.22 1690.83 2280.07 1691.27 2282.1 1691.27 2284.33 1691.27 2287.12 1690.75 2289.71 1689.7 2292.09 1688.66 2294.48 1687.09 2296.54 1685 2298.28 1682.91 2300.02 1680.33 2301.38 1677.27 2302.36 1674.2 2303.33 1670.61 2303.82 1666.5 2303.82 1663.27 2303.82 1659.97 2303.5 1656.63 2302.85 1653.29 2302.21 1650.12 2301.36 1647.12 2300.32L1647.12 2289.03 1653.86 2289.03C1654.42 2290.78 1655.08 2292.27 1655.85 2293.5 1656.61 2294.74 1657.51 2295.75 1658.54 2296.53 1659.56 2297.32 1660.75 2297.88 1662.09 2298.23 1663.43 2298.58 1664.95 2298.75 1666.66 2298.75 1671.15 2298.75 1674.56 2297.68 1676.88 2295.54 1679.19 2293.4 1680.35 2290.15 1680.35 2285.8 1680.35 2281.16 1678.83 2277.65 1675.78 2275.27 1672.73 2272.88 1668.21 2271.69 1662.22 2271.69L1657.62 2271.69 1657.62 2266.67C1661.28 2266.5 1664.44 2265.99 1667.11 2265.13 1669.77 2264.28 1671.99 2263.17 1673.77 2261.81 1675.54 2260.46 1676.87 2258.87 1677.74 2257.06 1678.61 2255.25 1679.04 2253.32 1679.04 2251.26 1679.04 2247.92 1678.05 2245.28 1676.07 2243.35 1674.08 2241.41 1671.21 2240.45 1667.45 2240.45 1664.28 2240.45 1661.62 2241.32 1659.48 2243.06 1657.34 2244.8 1655.69 2247.39 1654.54 2250.84L1647.91 2250.84 1647.91 2240.55C1652.02 2238.81 1655.89 2237.49 1659.53 2236.61 1663.17 2235.72 1666.66 2235.27 1670.01 2235.27Z" fill-rule="evenodd"/><text fill="#000000" fill-opacity="0" font-family="Arial,Arial_MSFontService,sans-serif" font-size="68.5469" x="1647.12" y="2295.25">3</text><path d="M3220.4 2298.95 3249.83 2298.95 3249.83 2308.93 3220.33 2308.93C3215.59 2308.93 3211.75 2309.19 3208.81 2309.72 3205.86 2310.25 3203.41 2311.1 3201.45 2312.27 3199.49 2313.44 3197.7 2315.1 3196.1 2317.26 3194.5 2319.41 3193.24 2322.05 3192.33 2325.19 3191.42 2328.32 3190.85 2331.88 3190.61 2335.85L3249.83 2335.85 3249.83 2345.82 3190.54 2345.82C3190.78 2350.27 3191.42 2354.22 3192.48 2357.67 3193.53 2361.11 3195.12 2364.04 3197.25 2366.46 3199.38 2368.88 3202.13 2370.66 3205.5 2371.81 3208.88 2372.96 3213.53 2373.53 3219.46 2373.53L3249.83 2373.53 3249.83 2383.51 3219.18 2383.51C3214.49 2383.51 3210.42 2383.22 3206.98 2382.65 3203.53 2382.07 3200.42 2381.14 3197.64 2379.85 3194.87 2378.55 3192.25 2376.6 3189.78 2374 3187.32 2371.39 3185.32 2368.51 3183.79 2365.35 3182.26 2362.19 3181.11 2358.62 3180.35 2354.65 3179.58 2350.68 3179.2 2346.37 3179.2 2341.73 3179.2 2334.17 3179.94 2327.92 3181.42 2322.96 3182.91 2318.01 3185.39 2313.61 3188.89 2309.76 3192.38 2305.9 3196.57 2303.14 3201.45 2301.47 3206.33 2299.79 3212.65 2298.95 3220.4 2298.95Z" fill-rule="evenodd"/><text fill="#000000" fill-opacity="0" font-family="Arial,Arial_MSFontService,sans-serif" font-size="84.5537" x="3179.2" y="2372.94">∈</text><path d="M3373.33 2292.85C3370.02 2292.85 3367.8 2292.9 3366.65 2293L3366.65 2334.56 3372.47 2334.56C3376.58 2334.56 3379.83 2333.67 3382.23 2331.9 3384.62 2330.13 3386.29 2327.7 3387.25 2324.61 3388.21 2321.53 3388.69 2317.71 3388.69 2313.17 3388.69 2306.32 3387.41 2301.23 3384.85 2297.88 3382.29 2294.53 3378.45 2292.85 3373.33 2292.85ZM3346.63 2291.85 3346.63 2377.19 3358.68 2377.19 3358.68 2291.85ZM3385.1 2290.41 3384.74 2291.13C3388.95 2293.71 3391.99 2296.85 3393.85 2300.53 3395.72 2304.22 3396.65 2308.55 3396.65 2313.52 3396.65 2320.46 3395.25 2325.92 3392.46 2329.89 3389.66 2333.86 3385.15 2336.78 3378.93 2338.65L3378.93 2339.51C3380.07 2340.27 3381.1 2341.15 3382.01 2342.13 3382.92 2343.11 3383.76 2344.21 3384.52 2345.43 3385.29 2346.65 3386.39 2348.62 3387.83 2351.35L3396.3 2367.5C3397.3 2369.51 3398.28 2371.38 3399.24 2373.1 3400.2 2374.82 3401.01 2376.19 3401.68 2377.19L3415.96 2377.19 3415.96 2376.47C3415.01 2375.52 3413.95 2374.14 3412.8 2372.35 3411.66 2370.55 3410.72 2368.96 3410 2367.57L3403.19 2354.58C3400.94 2350.32 3398.66 2346.97 3396.37 2344.53 3394.07 2342.09 3391.18 2340.25 3387.68 2339.01L3387.68 2336.64C3402.28 2332.67 3409.57 2324.43 3409.57 2311.95 3409.57 2305.96 3407.52 2301.15 3403.4 2297.52 3399.29 2293.88 3393.18 2291.51 3385.1 2290.41ZM3330.26 2285.53 3378.35 2285.53C3388.11 2285.53 3395.77 2286.52 3401.32 2288.51 3406.87 2290.5 3411.02 2293.44 3413.77 2297.34 3416.52 2301.24 3417.9 2306.11 3417.9 2311.95 3417.9 2323.86 3411.51 2332.62 3398.74 2338.22L3398.74 2338.93C3401.18 2340.23 3403.38 2342.04 3405.34 2344.39 3407.3 2346.73 3409.62 2350.35 3412.3 2355.23L3417.61 2364.99C3418.86 2367.24 3419.96 2369.15 3420.91 2370.73 3421.87 2372.31 3422.88 2373.75 3423.93 2375.04 3424.98 2376.33 3426.06 2377.36 3427.16 2378.12 3428.26 2378.89 3429.55 2379.51 3431.04 2379.99L3431.04 2383.51 3396.15 2383.51C3395.48 2382.6 3394.79 2381.53 3394.07 2380.31 3393.35 2379.09 3392.3 2377.17 3390.91 2374.54L3380.36 2354.15C3379.31 2352.19 3378.22 2350.15 3377.09 2348.05 3375.97 2345.94 3375.04 2344.5 3374.3 2343.71 3373.55 2342.92 3372.76 2342.35 3371.93 2342.02 3371.09 2341.69 3369.76 2341.52 3367.94 2341.52L3366.65 2341.52 3366.65 2365.35C3366.65 2368.79 3366.78 2371.29 3367.05 2372.85 3367.31 2374.4 3367.7 2375.58 3368.23 2376.37 3368.76 2377.16 3369.49 2377.81 3370.42 2378.34 3371.35 2378.87 3372.9 2379.42 3375.05 2379.99L3375.05 2383.51 3330.26 2383.51 3330.26 2379.99C3333.23 2379.22 3335.21 2378.38 3336.22 2377.44 3337.22 2376.51 3337.88 2375.18 3338.19 2373.46 3338.5 2371.74 3338.66 2369.1 3338.66 2365.56L3338.66 2303.48C3338.66 2300.17 3338.54 2297.77 3338.3 2296.26 3338.06 2294.75 3337.67 2293.58 3337.11 2292.74 3336.56 2291.91 3335.83 2291.24 3334.93 2290.74 3334.02 2290.23 3332.46 2289.67 3330.26 2289.05Z" fill-rule="evenodd"/><text fill="#000000" fill-opacity="0" font-family="Arial,Arial_MSFontService,sans-serif" font-size="97.9761" x="3330.26" y="2371.26">ℝ</text><path d="M3462.19 2235.27C3465.82 2235.27 3468.91 2235.68 3471.47 2236.5 3474.03 2237.32 3476.11 2238.43 3477.71 2239.82 3479.31 2241.21 3480.47 2242.88 3481.18 2244.83 3481.9 2246.79 3482.26 2248.89 3482.26 2251.16 3482.26 2252.51 3482.16 2253.78 3481.97 2254.94 3481.78 2256.11 3481.45 2257.26 3480.98 2258.39 3480.51 2259.52 3479.89 2260.67 3479.12 2261.81 3478.35 2262.96 3477.4 2264.18 3476.25 2265.47 3475.38 2266.59 3474.24 2267.88 3472.85 2269.34 3471.46 2270.8 3469.93 2272.37 3468.28 2274.04 3466.62 2275.71 3464.89 2277.45 3463.08 2279.26 3461.27 2281.08 3459.51 2282.87 3457.8 2284.65 3456.1 2286.42 3454.53 2288.15 3453.1 2289.82 3451.67 2291.49 3450.51 2293.02 3449.6 2294.42L3468.93 2294.42C3470.57 2294.42 3471.88 2294.36 3472.85 2294.23 3473.83 2294.11 3474.64 2293.84 3475.28 2293.42 3475.92 2293.01 3476.47 2292.37 3476.93 2291.52 3477.38 2290.66 3477.9 2289.49 3478.49 2287.99L3483.35 2287.99C3483.18 2290.46 3483.01 2292.95 3482.86 2295.46 3482.7 2297.97 3482.53 2300.46 3482.36 2302.93L3438.11 2302.93 3438.11 2300.22C3438.94 2298.33 3439.92 2296.48 3441.03 2294.65 3442.15 2292.82 3443.4 2290.97 3444.79 2289.09 3446.19 2287.21 3447.77 2285.26 3449.55 2283.26 3451.33 2281.26 3453.29 2279.18 3455.45 2277.02 3458.73 2273.74 3461.39 2270.95 3463.45 2268.63 3465.5 2266.32 3467.12 2264.25 3468.31 2262.44 3469.49 2260.63 3470.3 2258.96 3470.74 2257.43 3471.17 2255.89 3471.39 2254.26 3471.39 2252.51 3471.39 2250.74 3471.14 2249.1 3470.63 2247.6 3470.13 2246.11 3469.4 2244.83 3468.46 2243.79 3467.52 2242.74 3466.33 2241.93 3464.88 2241.33 3463.44 2240.74 3461.77 2240.45 3459.89 2240.45 3456.65 2240.45 3453.94 2241.33 3451.74 2243.08 3449.55 2244.84 3447.84 2247.39 3446.62 2250.74L3439.78 2250.74 3439.78 2240.55C3444.24 2238.7 3448.34 2237.36 3452.08 2236.53 3455.83 2235.69 3459.2 2235.27 3462.19 2235.27Z" fill-rule="evenodd"/><text fill="#000000" fill-opacity="0" font-family="Arial,Arial_MSFontService,sans-serif" font-size="67.6587" x="3438.11" y="2294.48">2</text></g></svg>