<svg width="4413" height="1297" style="background-color: white;" xmlns="http://www.w3.org/2000/svg" xmlns:xlink="http://www.w3.org/1999/xlink" xml:space="preserve" overflow="hidden"><g transform="translate(30 -883)"><path d="M34.375-6.87495 261.075-6.87464C264.872-6.87463 267.95-3.79659 267.95 0.000370396 267.95 3.79733 264.872 6.87537 261.075 6.87536L34.375 6.87505C30.578 6.87504 27.5 3.797 27.5 3.80142e-05 27.5-3.79692 30.5781-6.87496 34.375-6.87495ZM41.25 20.6251 0 0 41.25-20.6249Z" fill="#AFABAB" transform="matrix(-1 0 0 1 1469.07 1665)"/><path d="M34.375-6.87493 175.824-6.87464C179.621-6.87463 182.699-3.79658 182.699 0.000375004 182.699 3.79733 179.621 6.87537 175.824 6.87536L34.375 6.87507C30.578 6.87506 27.5 3.79701 27.5 5.64458e-05 27.5-3.7969 30.578-6.87494 34.375-6.87493ZM41.25 20.6251 0 0 41.25-20.6249Z" fill="#AFABAB" transform="matrix(-1 0 0 1 1091.82 1664)"/><path d="M34.375-6.87494 205.079-6.87464C208.876-6.87463 211.954-3.79659 211.954 0.000372991 211.954 3.79733 208.875 6.87537 205.079 6.87536L34.375 6.87506C30.578 6.87505 27.5 3.79701 27.5 4.83939e-05 27.5-3.79691 30.5781-6.87495 34.375-6.87494ZM41.25 20.6251 0 0 41.25-20.6249Z" fill="#AFABAB" transform="matrix(-1 0 0 1 716.079 1664)"/><path d="M450.875 1879.37 450.875 1958.73C450.875 1962.53 447.797 1965.61 444.001 1965.61 440.204 1965.61 437.125 1962.53 437.125 1958.73L437.125 1879.37C437.125 1875.58 440.203 1872.5 444 1872.5 447.797 1872.5 450.875 1875.58 450.875 1879.37ZM423.375 1886.25 444 1845 464.625 1886.25Z" fill="#AFABAB"/><path d="M825.875 1879.37 825.876 1958.73C825.876 1962.53 822.798 1965.61 819.001 1965.61 815.204 1965.61 812.126 1962.53 812.126 1958.73L812.125 1879.37C812.125 1875.58 815.203 1872.5 819 1872.5 822.797 1872.5 825.875 1875.58 825.875 1879.37ZM798.375 1886.25 819 1845 839.625 1886.25Z" fill="#AFABAB"/><path d="M1201.88 1879.37 1201.88 1958.73C1201.88 1962.53 1198.8 1965.61 1195 1965.61 1191.2 1965.61 1188.13 1962.53 1188.13 1958.73L1188.12 1879.37C1188.12 1875.58 1191.2 1872.5 1195 1872.5 1198.8 1872.5 1201.88 1875.58 1201.88 1879.37ZM1174.38 1886.25 1195 1845 1215.62 1886.25Z" fill="#AFABAB"/><path d="M1576.88 1879.37 1576.88 1958.73C1576.88 1962.53 1573.8 1965.61 1570 1965.61 1566.2 1965.61 1563.13 1962.53 1563.13 1958.73L1563.12 1879.37C1563.12 1875.58 1566.2 1872.5 1570 1872.5 1573.8 1872.5 1576.88 1875.58 1576.88 1879.37ZM1549.38 1886.25 1570 1845 1590.62 1886.25Z" fill="#AFABAB"/><rect x="1092" y="1472" width="211" height="373" fill="#455054"/><text fill="#FFFFFF" font-family="Calibri,Calibri_MSFontService,sans-serif" font-weight="400" font-size="83" transform="matrix(6.12323e-17 1 -1 6.12323e-17 1170.07 1583)">RNN</text><rect x="717" y="1472" width="210" height="373" fill="#455054"/><text fill="#FFFFFF" font-family="Calibri,Calibri_MSFontService,sans-serif" font-weight="400" font-size="83" transform="matrix(6.12323e-17 1 -1 6.12323e-17 794.483 1583)">RNN</text><rect x="339" y="1472" width="211" height="373" fill="#455054"/><text fill="#FFFFFF" font-family="Calibri,Calibri_MSFontService,sans-serif" font-weight="400" font-size="83" transform="matrix(6.12323e-17 1 -1 6.12323e-17 416.575 1583)">RNN</text><path d="M34.375-6.87495 261.075-6.87464C264.872-6.87463 267.95-3.79659 267.95 0.000370396 267.95 3.79733 264.872 6.87537 261.075 6.87536L34.375 6.87505C30.578 6.87504 27.5 3.797 27.5 3.80142e-05 27.5-3.79692 30.5781-6.87496 34.375-6.87495ZM41.25 20.6251 0 0 41.25-20.6249Z" fill="#AFABAB" transform="matrix(-1 0 0 1 2954.07 1663)"/><path d="M34.375-6.87493 175.824-6.87464C179.621-6.87463 182.699-3.79658 182.699 0.000375004 182.699 3.79733 179.621 6.87537 175.824 6.87536L34.375 6.87507C30.578 6.87506 27.5 3.79701 27.5 5.64458e-05 27.5-3.7969 30.578-6.87494 34.375-6.87493ZM41.25 20.6251 0 0 41.25-20.6249Z" fill="#AFABAB" transform="matrix(-1 0 0 1 2577.82 1662)"/><path d="M34.375-6.87494 205.079-6.87464C208.876-6.87463 211.954-3.79659 211.954 0.000372991 211.954 3.79733 208.875 6.87537 205.079 6.87536L34.375 6.87506C30.578 6.87505 27.5 3.79701 27.5 4.83939e-05 27.5-3.79691 30.5781-6.87495 34.375-6.87494ZM41.25 20.6251 0 0 41.25-20.6249Z" fill="#AFABAB" transform="matrix(-1 0 0 1 2202.08 1662)"/><path d="M1936.88 1877.37 1936.88 1956.73C1936.88 1960.53 1933.8 1963.61 1930 1963.61 1926.2 1963.61 1923.13 1960.53 1923.13 1956.73L1923.13 1877.37C1923.13 1873.58 1926.2 1870.5 1930 1870.5 1933.8 1870.5 1936.88 1873.58 1936.88 1877.37ZM1909.38 1884.25 1930 1843 1950.63 1884.25Z" fill="#AFABAB"/><path d="M2311.87 1877.37 2311.88 1956.73C2311.88 1960.53 2308.8 1963.61 2305 1963.61 2301.2 1963.61 2298.13 1960.53 2298.12 1956.73L2298.12 1877.37C2298.12 1873.58 2301.2 1870.5 2305 1870.5 2308.8 1870.5 2311.87 1873.58 2311.87 1877.37ZM2284.38 1884.25 2305 1843 2325.62 1884.25Z" fill="#AFABAB"/><path d="M2687.88 1877.37 2687.88 1956.73C2687.88 1960.53 2684.8 1963.61 2681 1963.61 2677.2 1963.61 2674.13 1960.53 2674.13 1956.73L2674.12 1877.37C2674.12 1873.58 2677.2 1870.5 2681 1870.5 2684.8 1870.5 2687.88 1873.58 2687.88 1877.37ZM2660.38 1884.25 2681 1843 2701.63 1884.25Z" fill="#AFABAB"/><path d="M3062.88 1877.37 3062.88 1956.73C3062.88 1960.53 3059.8 1963.61 3056 1963.61 3052.2 1963.61 3049.13 1960.53 3049.13 1956.73L3049.12 1877.37C3049.12 1873.58 3052.2 1870.5 3056 1870.5 3059.8 1870.5 3062.88 1873.58 3062.88 1877.37ZM3035.38 1884.25 3056 1843 3076.63 1884.25Z" fill="#AFABAB"/><path d="M3066.88 1391.38 3066.88 1470.73C3066.88 1474.53 3063.8 1477.61 3060 1477.61 3056.2 1477.61 3053.13 1474.53 3053.13 1470.73L3053.12 1391.38C3053.12 1387.58 3056.2 1384.5 3060 1384.5 3063.8 1384.5 3066.88 1387.58 3066.88 1391.38ZM3039.38 1398.25 3060 1357 3080.63 1398.25Z" fill="#AFABAB"/><rect x="2578" y="1470" width="211" height="373" fill="#455054"/><text fill="#FFFFFF" font-family="Calibri,Calibri_MSFontService,sans-serif" font-weight="400" font-size="83" transform="matrix(6.12323e-17 1 -1 6.12323e-17 2655.96 1581)">RNN</text><rect x="2202" y="1470" width="211" height="373" fill="#455054"/><text fill="#FFFFFF" font-family="Calibri,Calibri_MSFontService,sans-serif" font-weight="400" font-size="83" transform="matrix(6.12323e-17 1 -1 6.12323e-17 2280.37 1581)">RNN</text><rect x="1825" y="1470" width="210" height="373" fill="#455054"/><text fill="#FFFFFF" font-family="Calibri,Calibri_MSFontService,sans-serif" font-weight="400" font-size="83" transform="matrix(6.12323e-17 1 -1 6.12323e-17 1902.46 1581)">RNN</text><text font-family="Cambria Math,Cambria Math_MSFontService,sans-serif" font-weight="400" font-size="92" transform="matrix(1 0 0 1 409.143 2100)">it</text><text font-family="Cambria Math,Cambria Math_MSFontService,sans-serif" font-weight="400" font-size="92" transform="matrix(1 0 0 1 735.865 2100)">was</text><text font-family="Cambria Math,Cambria Math_MSFontService,sans-serif" font-weight="400" font-size="92" transform="matrix(1 0 0 1 1079.18 2104)">raining</text><text font-family="Cambria Math,Cambria Math_MSFontService,sans-serif" font-weight="400" font-size="92" transform="matrix(1 0 0 1 1537.2 2100)">so</text><text font-family="Cambria Math,Cambria Math_MSFontService,sans-serif" font-weight="400" font-size="92" transform="matrix(1 0 0 1 1881.93 2096)">the</text><text font-family="Cambria Math,Cambria Math_MSFontService,sans-serif" font-weight="400" font-size="92" transform="matrix(1 0 0 1 2163.86 2100)">person</text><text font-family="Cambria Math,Cambria Math_MSFontService,sans-serif" font-weight="400" font-size="92" transform="matrix(1 0 0 1 2544.87 2104)">opened</text><text font-family="Cambria Math,Cambria Math_MSFontService,sans-serif" font-weight="400" font-size="92" transform="matrix(1 0 0 1 2979.1 2100)">their</text><path d="M34.375-6.87494 205.079-6.87464C208.876-6.87463 211.954-3.79659 211.954 0.000372991 211.954 3.79733 208.875 6.87537 205.079 6.87536L34.375 6.87506C30.578 6.87505 27.5 3.79701 27.5 4.83939e-05 27.5-3.79691 30.5781-6.87495 34.375-6.87494ZM41.25 20.6251 0 0 41.25-20.6249Z" fill="#AFABAB" transform="matrix(-1 0 0 1 339.079 1656)"/><path d="M36.8513 1624.68 39.2019 1624.68 32.2312 1652.77 32.7175 1652.93C35.2842 1649.53 37.7091 1647.06 39.9921 1645.54 42.2752 1644.01 44.5785 1643.25 46.9021 1643.25 49.4147 1643.25 51.3466 1643.97 52.6975 1645.41 54.0484 1646.86 54.7238 1648.87 54.7238 1651.43 54.7238 1653.13 54.3321 1655.55 53.5485 1658.69L50.9143 1669.31C50.1848 1672.25 49.82 1674.33 49.82 1675.55 49.82 1676.63 49.9956 1677.41 50.3469 1677.9 50.6981 1678.38 51.252 1678.63 52.0085 1678.63 52.819 1678.63 53.6836 1678.3 54.6022 1677.63 55.5209 1676.97 56.8177 1675.71 58.4929 1673.84L60.8029 1676.11C58.2092 1678.84 56.0815 1680.72 54.4199 1681.75 52.7583 1682.77 50.8872 1683.29 48.8068 1683.29 47.0507 1683.29 45.6525 1682.67 44.6123 1681.42 43.5721 1680.18 43.052 1678.57 43.052 1676.6 43.052 1674.84 43.4978 1672.26 44.3894 1668.86L46.132 1661.85C46.7535 1659.34 47.1722 1657.45 47.3884 1656.19 47.6045 1654.94 47.7126 1653.96 47.7126 1653.26 47.7126 1651.34 47.4019 1649.98 46.7805 1649.18 46.1591 1648.39 45.1459 1647.99 43.7409 1647.99 42.6332 1647.99 41.4038 1648.45 40.0529 1649.37 38.702 1650.28 37.2836 1651.68 35.7976 1653.56 34.3116 1655.44 33.1295 1657.23 32.2514 1658.95 31.3733 1660.67 30.6776 1662.71 30.1643 1665.09L26.4763 1682.64 19.465 1682.64 29.8806 1636.32C30.529 1633.42 30.8532 1631.43 30.8532 1630.32 30.8532 1629.18 30.5087 1628.39 29.8198 1627.93 29.1308 1627.47 27.8947 1627.21 26.1115 1627.16L26.5979 1625.05Z" fill-rule="evenodd"/><text fill="#000000" fill-opacity="0" font-family="Arial,Arial_MSFontService,sans-serif" font-size="58.6025" x="19.465" y="1675.96">ℎ</text><path d="M79.2325 1663.8C77.8425 1663.8 76.6809 1664.16 75.7476 1664.89 74.8143 1665.61 74.0747 1666.67 73.5286 1668.07 72.9825 1669.47 72.5953 1671.18 72.367 1673.2 72.1386 1675.21 72.0245 1677.5 72.0245 1680.06 72.0245 1683.02 72.1684 1685.58 72.4563 1687.73 72.7443 1689.89 73.191 1691.66 73.7967 1693.05 74.4023 1694.44 75.1618 1695.46 76.0752 1696.12 76.9886 1696.77 78.0808 1697.1 79.3516 1697.1 80.543 1697.1 81.5855 1696.79 82.479 1696.18 83.3726 1695.56 84.1123 1694.6 84.698 1693.3 85.2838 1692 85.7256 1690.35 86.0235 1688.36 86.3213 1686.36 86.4703 1684 86.4703 1681.28 86.4703 1678.23 86.3064 1675.59 85.9788 1673.39 85.6512 1671.19 85.1895 1669.37 84.5938 1667.95 83.9981 1666.54 83.2485 1665.49 82.345 1664.81 81.4415 1664.14 80.404 1663.8 79.2325 1663.8ZM79.3516 1660.91C81.7146 1660.91 83.735 1661.35 85.4129 1662.24 87.0908 1663.12 88.4609 1664.38 89.5232 1666.02 90.5856 1667.66 91.3649 1669.66 91.8614 1672.02 92.3578 1674.38 92.606 1677.05 92.606 1680.03 92.606 1686.65 91.4344 1691.64 89.0913 1695.03 86.7482 1698.42 83.3527 1700.11 78.9048 1700.11 74.4966 1700.11 71.2203 1698.51 69.0757 1695.31 66.9312 1692.12 65.8589 1687.27 65.8589 1680.78 65.8589 1677.38 66.1915 1674.44 66.8567 1671.96 67.5219 1669.48 68.4552 1667.42 69.6565 1665.78 70.8579 1664.14 72.2826 1662.92 73.9307 1662.12 75.5788 1661.31 77.3858 1660.91 79.3516 1660.91Z" fill-rule="evenodd"/><text fill="#000000" fill-opacity="0" font-family="Arial,Arial_MSFontService,sans-serif" font-size="39.1973" x="65.8589" y="1695.21">0</text><path d="M615.371 1561.54 617.722 1561.54 610.751 1589.62 611.238 1589.79C613.804 1586.38 616.229 1583.92 618.512 1582.39 620.795 1580.86 623.099 1580.1 625.422 1580.1 627.935 1580.1 629.867 1580.82 631.218 1582.27 632.568 1583.71 633.244 1585.72 633.244 1588.29 633.244 1589.99 632.852 1592.41 632.069 1595.54L629.434 1606.16C628.705 1609.1 628.34 1611.18 628.34 1612.4 628.34 1613.48 628.516 1614.26 628.867 1614.75 629.218 1615.24 629.772 1615.48 630.529 1615.48 631.339 1615.48 632.204 1615.15 633.122 1614.49 634.041 1613.83 635.338 1612.56 637.013 1610.7L639.323 1612.97C636.729 1615.7 634.602 1617.57 632.94 1618.6 631.278 1619.63 629.407 1620.14 627.327 1620.14 625.571 1620.14 624.173 1619.52 623.132 1618.28 622.092 1617.03 621.572 1615.43 621.572 1613.45 621.572 1611.7 622.018 1609.12 622.909 1605.71L624.652 1598.7C625.273 1596.19 625.692 1594.31 625.908 1593.05 626.125 1591.79 626.233 1590.81 626.233 1590.11 626.233 1588.19 625.922 1586.83 625.301 1586.04 624.679 1585.24 623.666 1584.84 622.261 1584.84 621.153 1584.84 619.924 1585.3 618.573 1586.22 617.222 1587.14 615.804 1588.54 614.318 1590.41 612.832 1592.29 611.65 1594.09 610.771 1595.8 609.893 1597.52 609.198 1599.57 608.684 1601.94L604.996 1619.49 597.985 1619.49 608.401 1573.17C609.049 1570.28 609.373 1568.28 609.373 1567.17 609.373 1566.04 609.029 1565.24 608.34 1564.78 607.651 1564.32 606.415 1564.07 604.632 1564.01L605.118 1561.9Z" fill-rule="evenodd"/><text fill="#000000" fill-opacity="0" font-family="Arial,Arial_MSFontService,sans-serif" font-size="58.6025" x="597.985" y="1612.82">ℎ</text><path d="M658.293 1597.97 660.11 1597.97C660.07 1599.07 660.04 1600.04 660.02 1600.91 660 1601.77 659.986 1602.61 659.976 1603.42 659.966 1604.24 659.961 1605.04 659.961 1605.84L659.961 1628.47C659.961 1629.09 659.981 1629.62 660.02 1630.07 660.06 1630.51 660.125 1630.89 660.214 1631.2 660.303 1631.51 660.422 1631.77 660.571 1631.99 660.72 1632.21 660.894 1632.4 661.093 1632.55 661.331 1632.79 661.649 1632.98 662.046 1633.1 662.443 1633.23 662.949 1633.34 663.565 1633.43 664.18 1633.52 664.92 1633.59 665.784 1633.64 666.648 1633.69 667.685 1633.73 668.896 1633.75L668.896 1636.34 645.277 1636.34 645.277 1633.75C646.448 1633.71 647.441 1633.66 648.255 1633.61 649.069 1633.56 649.764 1633.49 650.34 1633.4 650.916 1633.31 651.378 1633.21 651.725 1633.1 652.073 1633 652.375 1632.86 652.634 1632.7 652.912 1632.52 653.15 1632.33 653.348 1632.12 653.547 1631.91 653.706 1631.65 653.825 1631.33 653.944 1631.02 654.038 1630.63 654.108 1630.17 654.177 1629.71 654.212 1629.15 654.212 1628.47L654.212 1607.12C654.212 1606.34 654.063 1605.8 653.765 1605.48 653.468 1605.16 653.041 1605 652.485 1605 651.869 1605 650.956 1605.32 649.744 1605.96 648.533 1606.59 646.964 1607.53 645.038 1608.79 644.78 1608.33 644.542 1607.87 644.324 1607.42 644.105 1606.96 643.877 1606.49 643.638 1606.02 646.101 1604.67 648.538 1603.32 650.951 1601.98 653.363 1600.64 655.811 1599.3 658.293 1597.97Z" fill-rule="evenodd"/><text fill="#000000" fill-opacity="0" font-family="Arial,Arial_MSFontService,sans-serif" font-size="38.3633" x="643.638" y="1631.54">1</text><path d="M991.305 1559.4 993.655 1559.4 986.685 1587.49 987.171 1587.65C989.738 1584.25 992.163 1581.78 994.446 1580.25 996.729 1578.73 999.032 1577.96 1001.36 1577.96 1003.87 1577.96 1005.8 1578.69 1007.15 1580.13 1008.5 1581.58 1009.18 1583.58 1009.18 1586.15 1009.18 1587.85 1008.79 1590.27 1008 1593.41L1005.37 1604.02C1004.64 1606.97 1004.27 1609.05 1004.27 1610.27 1004.27 1611.35 1004.45 1612.13 1004.8 1612.62 1005.15 1613.1 1005.71 1613.35 1006.46 1613.35 1007.27 1613.35 1008.14 1613.01 1009.06 1612.35 1009.97 1611.69 1011.27 1610.43 1012.95 1608.56L1015.26 1610.83C1012.66 1613.56 1010.53 1615.44 1008.87 1616.47 1007.21 1617.49 1005.34 1618.01 1003.26 1618.01 1001.5 1618.01 1000.11 1617.38 999.066 1616.14 998.026 1614.9 997.505 1613.29 997.505 1611.32 997.505 1609.56 997.951 1606.98 998.843 1603.58L1000.59 1596.57C1001.21 1594.05 1001.63 1592.17 1001.84 1590.91 1002.06 1589.66 1002.17 1588.68 1002.17 1587.98 1002.17 1586.06 1001.86 1584.7 1001.23 1583.9 1000.61 1583.11 999.599 1582.71 998.194 1582.71 997.087 1582.71 995.857 1583.17 994.506 1584.08 993.156 1585 991.737 1586.4 990.251 1588.28 988.765 1590.16 987.583 1591.95 986.705 1593.67 985.827 1595.39 985.131 1597.43 984.618 1599.81L980.93 1617.36 973.919 1617.36 984.334 1571.03C984.982 1568.14 985.307 1566.14 985.307 1565.04 985.307 1563.9 984.962 1563.1 984.273 1562.65 983.584 1562.19 982.348 1561.93 980.565 1561.88L981.051 1559.77Z" fill-rule="evenodd"/><text fill="#000000" fill-opacity="0" font-family="Arial,Arial_MSFontService,sans-serif" font-size="58.6025" x="973.919" y="1610.68">ℎ</text><path d="M1033.81 1595.63C1035.87 1595.63 1037.63 1595.86 1039.09 1596.33 1040.55 1596.8 1041.74 1597.43 1042.65 1598.22 1043.56 1599.02 1044.22 1599.97 1044.63 1601.08 1045.04 1602.19 1045.24 1603.39 1045.24 1604.68 1045.24 1605.46 1045.19 1606.18 1045.08 1606.84 1044.97 1607.51 1044.78 1608.16 1044.51 1608.81 1044.24 1609.45 1043.89 1610.11 1043.46 1610.76 1043.02 1611.42 1042.47 1612.11 1041.82 1612.85 1041.32 1613.48 1040.68 1614.22 1039.88 1615.05 1039.09 1615.88 1038.22 1616.78 1037.28 1617.73 1036.33 1618.68 1035.34 1619.68 1034.31 1620.71 1033.28 1621.74 1032.28 1622.76 1031.3 1623.78 1030.33 1624.79 1029.44 1625.77 1028.62 1626.73 1027.81 1627.68 1027.14 1628.55 1026.63 1629.35L1037.65 1629.35C1038.58 1629.35 1039.33 1629.31 1039.88 1629.24 1040.44 1629.17 1040.9 1629.02 1041.27 1628.78 1041.63 1628.54 1041.95 1628.18 1042.2 1627.69 1042.46 1627.21 1042.76 1626.54 1043.1 1625.68L1045.87 1625.68C1045.77 1627.09 1045.67 1628.51 1045.59 1629.94 1045.5 1631.37 1045.4 1632.79 1045.3 1634.2L1020.07 1634.2 1020.07 1632.65C1020.55 1631.58 1021.11 1630.52 1021.74 1629.48 1022.38 1628.44 1023.09 1627.38 1023.89 1626.31 1024.68 1625.24 1025.58 1624.13 1026.6 1622.99 1027.61 1621.85 1028.73 1620.66 1029.96 1619.43 1031.83 1617.56 1033.35 1615.97 1034.52 1614.65 1035.69 1613.33 1036.61 1612.15 1037.29 1611.12 1037.97 1610.09 1038.43 1609.13 1038.67 1608.26 1038.92 1607.38 1039.05 1606.45 1039.05 1605.46 1039.05 1604.45 1038.9 1603.51 1038.62 1602.66 1038.33 1601.8 1037.92 1601.08 1037.38 1600.48 1036.84 1599.89 1036.16 1599.42 1035.34 1599.08 1034.52 1598.75 1033.57 1598.58 1032.49 1598.58 1030.65 1598.58 1029.1 1599.08 1027.85 1600.08 1026.6 1601.09 1025.62 1602.54 1024.93 1604.45L1021.03 1604.45 1021.03 1598.64C1023.57 1597.59 1025.91 1596.82 1028.04 1596.34 1030.18 1595.87 1032.1 1595.63 1033.81 1595.63Z" fill-rule="evenodd"/><text fill="#000000" fill-opacity="0" font-family="Arial,Arial_MSFontService,sans-serif" font-size="38.5718" x="1020.07" y="1629.38">2</text><path d="M1362.59 1555.59 1364.94 1555.59 1357.97 1583.68 1358.45 1583.84C1361.02 1580.43 1363.45 1577.97 1365.73 1576.44 1368.01 1574.92 1370.31 1574.15 1372.64 1574.15 1375.15 1574.15 1377.08 1574.88 1378.43 1576.32 1379.78 1577.77 1380.46 1579.77 1380.46 1582.34 1380.46 1584.04 1380.07 1586.46 1379.28 1589.59L1376.65 1600.21C1375.92 1603.16 1375.56 1605.24 1375.56 1606.45 1375.56 1607.53 1375.73 1608.32 1376.08 1608.8 1376.43 1609.29 1376.99 1609.53 1377.74 1609.53 1378.56 1609.53 1379.42 1609.2 1380.34 1608.54 1381.26 1607.88 1382.55 1606.62 1384.23 1604.75L1386.54 1607.02C1383.95 1609.75 1381.82 1611.63 1380.16 1612.65 1378.49 1613.68 1376.62 1614.19 1374.54 1614.19 1372.79 1614.19 1371.39 1613.57 1370.35 1612.33 1369.31 1611.09 1368.79 1609.48 1368.79 1607.51 1368.79 1605.75 1369.23 1603.17 1370.13 1599.77L1371.87 1592.75C1372.49 1590.24 1372.91 1588.36 1373.12 1587.1 1373.34 1585.84 1373.45 1584.87 1373.45 1584.16 1373.45 1582.24 1373.14 1580.89 1372.52 1580.09 1371.9 1579.29 1370.88 1578.89 1369.48 1578.89 1368.37 1578.89 1367.14 1579.35 1365.79 1580.27 1364.44 1581.19 1363.02 1582.59 1361.53 1584.47 1360.05 1586.34 1358.87 1588.14 1357.99 1589.86 1357.11 1591.57 1356.41 1593.62 1355.9 1596L1352.21 1613.55 1345.2 1613.55 1355.62 1567.22C1356.27 1564.33 1356.59 1562.33 1356.59 1561.22 1356.59 1560.09 1356.24 1559.29 1355.56 1558.83 1354.87 1558.37 1353.63 1558.12 1351.85 1558.06L1352.33 1555.96Z" fill-rule="evenodd"/><text fill="#000000" fill-opacity="0" font-family="Arial,Arial_MSFontService,sans-serif" font-size="58.6025" x="1345.2" y="1606.87">ℎ</text><path d="M1405.03 1591.82C1406.62 1591.82 1408.1 1591.99 1409.48 1592.32 1410.86 1592.66 1412.06 1593.17 1413.07 1593.86 1414.08 1594.54 1414.87 1595.4 1415.44 1596.42 1416 1597.44 1416.29 1598.63 1416.29 1599.98 1416.29 1601.25 1416.11 1602.37 1415.75 1603.34 1415.39 1604.32 1414.84 1605.2 1414.1 1606 1413.35 1606.79 1412.44 1607.51 1411.36 1608.15 1410.28 1608.8 1409.03 1609.42 1407.62 1610.02L1407.62 1610.37C1408.95 1610.61 1410.19 1610.99 1411.34 1611.52 1412.49 1612.05 1413.5 1612.71 1414.37 1613.52 1415.23 1614.32 1415.91 1615.25 1416.41 1616.3 1416.9 1617.35 1417.15 1618.51 1417.15 1619.79 1417.15 1621.37 1416.85 1622.85 1416.26 1624.21 1415.66 1625.57 1414.77 1626.75 1413.58 1627.74 1412.38 1628.73 1410.92 1629.51 1409.17 1630.06 1407.42 1630.62 1405.38 1630.9 1403.03 1630.9 1401.19 1630.9 1399.31 1630.71 1397.4 1630.34 1395.5 1629.98 1393.69 1629.5 1391.98 1628.9L1391.98 1622.47 1395.82 1622.47C1396.14 1623.46 1396.52 1624.31 1396.96 1625.01 1397.39 1625.72 1397.9 1626.29 1398.49 1626.74 1399.08 1627.19 1399.75 1627.51 1400.52 1627.71 1401.28 1627.91 1402.15 1628.01 1403.12 1628.01 1405.68 1628.01 1407.62 1627.4 1408.94 1626.17 1410.27 1624.95 1410.93 1623.1 1410.93 1620.62 1410.93 1617.98 1410.06 1615.98 1408.32 1614.62 1406.58 1613.26 1404.01 1612.58 1400.59 1612.58L1397.97 1612.58 1397.97 1609.72C1400.05 1609.62 1401.86 1609.33 1403.37 1608.84 1404.89 1608.35 1406.16 1607.72 1407.17 1606.95 1408.19 1606.17 1408.94 1605.27 1409.44 1604.24 1409.93 1603.21 1410.18 1602.1 1410.18 1600.93 1410.18 1599.03 1409.61 1597.52 1408.48 1596.42 1407.35 1595.32 1405.71 1594.77 1403.57 1594.77 1401.76 1594.77 1400.25 1595.26 1399.03 1596.26 1397.81 1597.25 1396.87 1598.73 1396.21 1600.69L1392.43 1600.69 1392.43 1594.83C1394.77 1593.83 1396.98 1593.08 1399.06 1592.58 1401.13 1592.07 1403.12 1591.82 1405.03 1591.82Z" fill-rule="evenodd"/><text fill="#000000" fill-opacity="0" font-family="Arial,Arial_MSFontService,sans-serif" font-size="39.0781" x="1391.98" y="1626.01">3</text><path d="M1731.3 1561.05 1733.66 1561.05 1726.68 1589.13 1727.17 1589.29C1729.74 1585.89 1732.16 1583.42 1734.45 1581.9 1736.73 1580.37 1739.03 1579.61 1741.36 1579.61 1743.87 1579.61 1745.8 1580.33 1747.15 1581.77 1748.5 1583.22 1749.18 1585.23 1749.18 1587.79 1749.18 1589.5 1748.79 1591.91 1748 1595.05L1745.37 1605.67C1744.64 1608.61 1744.27 1610.69 1744.27 1611.91 1744.27 1612.99 1744.45 1613.77 1744.8 1614.26 1745.15 1614.74 1745.71 1614.99 1746.46 1614.99 1747.27 1614.99 1748.14 1614.66 1749.06 1613.99 1749.97 1613.33 1751.27 1612.07 1752.95 1610.2L1755.26 1612.47C1752.66 1615.2 1750.54 1617.08 1748.87 1618.11 1747.21 1619.13 1745.34 1619.65 1743.26 1619.65 1741.5 1619.65 1740.11 1619.03 1739.07 1617.78 1738.03 1616.54 1737.51 1614.93 1737.51 1612.96 1737.51 1611.2 1737.95 1608.62 1738.84 1605.22L1740.59 1598.21C1741.21 1595.7 1741.63 1593.81 1741.84 1592.56 1742.06 1591.3 1742.17 1590.32 1742.17 1589.62 1742.17 1587.7 1741.86 1586.34 1741.23 1585.54 1740.61 1584.75 1739.6 1584.35 1738.19 1584.35 1737.09 1584.35 1735.86 1584.81 1734.51 1585.73 1733.16 1586.64 1731.74 1588.04 1730.25 1589.92 1728.77 1591.8 1727.58 1593.6 1726.7 1595.31 1725.83 1597.03 1725.13 1599.07 1724.62 1601.45L1720.93 1619 1713.92 1619 1724.33 1572.68C1724.98 1569.79 1725.31 1567.79 1725.31 1566.68 1725.31 1565.54 1724.96 1564.75 1724.27 1564.29 1723.58 1563.83 1722.35 1563.57 1720.57 1563.52L1721.05 1561.41Z" fill-rule="evenodd"/><text fill="#000000" fill-opacity="0" font-family="Arial,Arial_MSFontService,sans-serif" font-size="58.6025" x="1713.92" y="1612.32">ℎ</text><path d="M1775.21 1604.66C1773.3 1607.42 1771.4 1610.16 1769.5 1612.88 1767.6 1615.6 1765.69 1618.33 1763.77 1621.07L1763.77 1621.43 1775.21 1621.43 1775.21 1615.44C1775.21 1614.77 1775.21 1613.93 1775.23 1612.94 1775.25 1611.95 1775.28 1610.94 1775.31 1609.92 1775.34 1608.89 1775.37 1607.92 1775.41 1607 1775.45 1606.07 1775.49 1605.29 1775.53 1604.66ZM1776.07 1597.69 1780.8 1597.69 1780.8 1621.43 1781.34 1621.43C1782.15 1621.43 1782.82 1621.39 1783.32 1621.31 1783.83 1621.23 1784.23 1621.06 1784.54 1620.82 1784.85 1620.57 1785.11 1620.22 1785.32 1619.77 1785.53 1619.33 1785.75 1618.75 1785.99 1618.03L1788.52 1618.03C1788.46 1619.12 1788.39 1620.21 1788.33 1621.28 1788.26 1622.35 1788.19 1623.44 1788.13 1624.55L1780.8 1624.55 1780.8 1628.46C1780.8 1629.61 1780.83 1630.5 1780.88 1631.14 1780.93 1631.77 1781.08 1632.27 1781.33 1632.63 1781.57 1632.98 1781.94 1633.25 1782.43 1633.43 1782.91 1633.61 1783.59 1633.82 1784.47 1634.06L1784.47 1635.84 1771.6 1635.84 1771.6 1634.06C1772.2 1633.9 1772.7 1633.75 1773.12 1633.62 1773.54 1633.49 1773.88 1633.35 1774.16 1633.18 1774.44 1633.01 1774.64 1632.81 1774.77 1632.58 1774.9 1632.35 1775 1632.07 1775.07 1631.72 1775.14 1631.37 1775.18 1630.93 1775.19 1630.41 1775.2 1629.88 1775.21 1629.23 1775.21 1628.46L1775.21 1624.55 1758.44 1624.55 1758.44 1622.2C1761.39 1618.09 1764.33 1614.01 1767.25 1609.94 1770.17 1605.88 1773.11 1601.8 1776.07 1597.69Z" fill-rule="evenodd"/><text fill="#000000" fill-opacity="0" font-family="Arial,Arial_MSFontService,sans-serif" font-size="38.1548" x="1758.44" y="1631.07">4</text><path d="M2094.4 1561.05 2096.75 1561.05 2089.78 1589.13 2090.27 1589.29C2092.84 1585.89 2095.26 1583.42 2097.54 1581.9 2099.83 1580.37 2102.13 1579.61 2104.45 1579.61 2106.97 1579.61 2108.9 1580.33 2110.25 1581.77 2111.6 1583.22 2112.28 1585.23 2112.28 1587.79 2112.28 1589.5 2111.88 1591.91 2111.1 1595.05L2108.47 1605.67C2107.74 1608.61 2107.37 1610.69 2107.37 1611.91 2107.37 1612.99 2107.55 1613.77 2107.9 1614.26 2108.25 1614.74 2108.8 1614.99 2109.56 1614.99 2110.37 1614.99 2111.24 1614.66 2112.16 1613.99 2113.07 1613.33 2114.37 1612.07 2116.05 1610.2L2118.36 1612.47C2115.76 1615.2 2113.63 1617.08 2111.97 1618.11 2110.31 1619.13 2108.44 1619.65 2106.36 1619.65 2104.6 1619.65 2103.21 1619.03 2102.17 1617.78 2101.12 1616.54 2100.6 1614.93 2100.6 1612.96 2100.6 1611.2 2101.05 1608.62 2101.94 1605.22L2103.68 1598.21C2104.31 1595.7 2104.73 1593.81 2104.94 1592.56 2105.16 1591.3 2105.27 1590.32 2105.27 1589.62 2105.27 1587.7 2104.95 1586.34 2104.33 1585.54 2103.71 1584.75 2102.7 1584.35 2101.29 1584.35 2100.19 1584.35 2098.96 1584.81 2097.61 1585.73 2096.25 1586.64 2094.84 1588.04 2093.35 1589.92 2091.86 1591.8 2090.68 1593.6 2089.8 1595.31 2088.93 1597.03 2088.23 1599.07 2087.72 1601.45L2084.03 1619 2077.02 1619 2087.43 1572.68C2088.08 1569.79 2088.41 1567.79 2088.41 1566.68 2088.41 1565.54 2088.06 1564.75 2087.37 1564.29 2086.68 1563.83 2085.45 1563.57 2083.66 1563.52L2084.15 1561.41Z" fill-rule="evenodd"/><text fill="#000000" fill-opacity="0" font-family="Arial,Arial_MSFontService,sans-serif" font-size="58.6025" x="2077.02" y="1612.32">ℎ</text><path d="M2145.42 1595.84 2148.1 1595.84 2147.69 1603.05 2130.23 1603.05 2130.23 1614.7C2131.28 1614.34 2132.44 1614.05 2133.69 1613.83 2134.94 1613.61 2136.2 1613.5 2137.47 1613.5 2139.3 1613.5 2140.95 1613.76 2142.43 1614.26 2143.91 1614.77 2145.18 1615.49 2146.24 1616.44 2147.3 1617.38 2148.13 1618.52 2148.71 1619.86 2149.3 1621.2 2149.59 1622.71 2149.59 1624.38 2149.59 1626.28 2149.27 1627.98 2148.61 1629.47 2147.95 1630.96 2147.02 1632.22 2145.8 1633.27 2144.57 1634.31 2143.08 1635.1 2141.33 1635.65 2139.57 1636.2 2137.59 1636.47 2135.39 1636.47 2133.64 1636.47 2131.85 1636.3 2130.02 1635.96 2128.2 1635.62 2126.3 1635.13 2124.33 1634.47L2124.33 1627.86 2128.15 1627.86C2128.74 1629.87 2129.64 1631.3 2130.83 1632.16 2132.02 1633.03 2133.59 1633.46 2135.53 1633.46 2138.14 1633.46 2140.1 1632.79 2141.43 1631.43 2142.76 1630.08 2143.43 1627.97 2143.43 1625.09 2143.43 1622.33 2142.72 1620.28 2141.31 1618.94 2139.9 1617.6 2137.93 1616.93 2135.39 1616.93 2134.71 1616.93 2134.1 1616.94 2133.55 1616.96 2133.01 1616.98 2132.47 1617.03 2131.93 1617.11 2131.39 1617.19 2130.86 1617.3 2130.34 1617.44 2129.81 1617.57 2129.22 1617.73 2128.56 1617.91L2126.12 1616.57 2126.12 1597.84 2142.62 1597.84C2143.1 1597.82 2143.48 1597.79 2143.77 1597.75 2144.06 1597.71 2144.29 1597.62 2144.47 1597.48 2144.65 1597.34 2144.81 1597.15 2144.95 1596.9 2145.09 1596.65 2145.24 1596.3 2145.42 1595.84Z" fill-rule="evenodd"/><text fill="#000000" fill-opacity="0" font-family="Arial,Arial_MSFontService,sans-serif" font-size="40.627" x="2124.33" y="1631.39">5</text><path d="M2474.15 1561.66 2476.5 1561.66 2469.53 1589.74 2470.01 1589.91C2472.58 1586.5 2475.01 1584.04 2477.29 1582.51 2479.57 1580.98 2481.88 1580.22 2484.2 1580.22 2486.71 1580.22 2488.64 1580.94 2489.99 1582.39 2491.35 1583.83 2492.02 1585.84 2492.02 1588.41 2492.02 1590.11 2491.63 1592.53 2490.85 1595.66L2488.21 1606.28C2487.48 1609.22 2487.12 1611.3 2487.12 1612.52 2487.12 1613.6 2487.29 1614.38 2487.64 1614.87 2488 1615.36 2488.55 1615.6 2489.31 1615.6 2490.12 1615.6 2490.98 1615.27 2491.9 1614.61 2492.82 1613.95 2494.12 1612.68 2495.79 1610.82L2498.1 1613.09C2495.51 1615.82 2493.38 1617.69 2491.72 1618.72 2490.06 1619.75 2488.18 1620.26 2486.1 1620.26 2484.35 1620.26 2482.95 1619.64 2481.91 1618.4 2480.87 1617.15 2480.35 1615.55 2480.35 1613.57 2480.35 1611.82 2480.8 1609.24 2481.69 1605.83L2483.43 1598.82C2484.05 1596.31 2484.47 1594.43 2484.69 1593.17 2484.9 1591.91 2485.01 1590.93 2485.01 1590.23 2485.01 1588.31 2484.7 1586.95 2484.08 1586.16 2483.46 1585.36 2482.44 1584.96 2481.04 1584.96 2479.93 1584.96 2478.7 1585.42 2477.35 1586.34 2476 1587.26 2474.58 1588.66 2473.09 1590.53 2471.61 1592.41 2470.43 1594.21 2469.55 1595.92 2468.67 1597.64 2467.98 1599.69 2467.46 1602.06L2463.77 1619.61 2456.76 1619.61 2467.18 1573.29C2467.83 1570.4 2468.15 1568.4 2468.15 1567.29 2468.15 1566.16 2467.81 1565.36 2467.12 1564.9 2466.43 1564.44 2465.19 1564.18 2463.41 1564.13L2463.9 1562.02Z" fill-rule="evenodd"/><text fill="#000000" fill-opacity="0" font-family="Arial,Arial_MSFontService,sans-serif" font-size="58.6025" x="2456.76" y="1612.94">ℎ</text><path d="M2517.81 1616.71C2516.48 1616.71 2515.25 1616.89 2514.13 1617.25 2513.01 1617.6 2511.94 1618.09 2510.93 1618.7 2510.51 1618.98 2510.19 1619.24 2509.96 1619.48 2509.73 1619.72 2509.56 1620 2509.46 1620.33 2509.35 1620.66 2509.27 1621.06 2509.23 1621.55 2509.19 1622.04 2509.17 1622.7 2509.17 1623.53 2509.17 1630.56 2511.72 1634.07 2516.83 1634.07 2518.22 1634.07 2519.41 1633.87 2520.42 1633.46 2521.42 1633.06 2522.24 1632.47 2522.87 1631.71 2523.51 1630.94 2523.98 1630 2524.27 1628.88 2524.57 1627.75 2524.72 1626.48 2524.72 1625.05 2524.72 1622.39 2524.12 1620.33 2522.93 1618.88 2521.74 1617.43 2520.03 1616.71 2517.81 1616.71ZM2525.7 1597.88C2525.94 1598.16 2526.16 1598.43 2526.36 1598.69 2526.56 1598.95 2526.78 1599.21 2527.01 1599.46L2527.01 1601.22C2524.61 1601.18 2522.45 1601.5 2520.52 1602.17 2518.59 1602.85 2516.9 1603.84 2515.43 1605.14 2513.96 1606.44 2512.73 1608.04 2511.73 1609.93 2510.74 1611.83 2509.97 1613.97 2509.41 1616.35L2509.74 1616.5C2510.55 1615.94 2511.36 1615.46 2512.15 1615.06 2512.95 1614.65 2513.75 1614.31 2514.56 1614.04 2515.38 1613.78 2516.22 1613.58 2517.1 1613.46 2517.97 1613.34 2518.9 1613.28 2519.9 1613.28 2521.64 1613.28 2523.19 1613.54 2524.53 1614.06 2525.87 1614.57 2527 1615.33 2527.94 1616.32 2528.87 1617.31 2529.58 1618.51 2530.05 1619.9 2530.53 1621.29 2530.77 1622.83 2530.77 1624.54 2530.77 1626.35 2530.47 1628.03 2529.87 1629.58 2529.28 1631.12 2528.38 1632.46 2527.19 1633.57 2526 1634.68 2524.53 1635.54 2522.77 1636.16 2521.01 1636.77 2518.95 1637.08 2516.59 1637.08 2512.12 1637.08 2508.75 1635.81 2506.48 1633.25 2504.2 1630.7 2503.07 1626.95 2503.07 1621.98 2503.07 1619.76 2503.32 1617.63 2503.81 1615.59 2504.31 1613.56 2505.04 1611.66 2506 1609.9 2506.96 1608.15 2508.13 1606.56 2509.5 1605.14 2510.87 1603.72 2512.4 1602.49 2514.09 1601.44 2515.78 1600.4 2517.6 1599.58 2519.57 1598.97 2521.53 1598.37 2523.58 1598 2525.7 1597.88Z" fill-rule="evenodd"/><text fill="#000000" fill-opacity="0" font-family="Arial,Arial_MSFontService,sans-serif" font-size="39.1973" x="2503.07" y="1632.18">6</text><path d="M2853.89 1559.4 2856.24 1559.4 2849.27 1587.49 2849.76 1587.65C2852.33 1584.25 2854.75 1581.78 2857.03 1580.25 2859.32 1578.73 2861.62 1577.96 2863.94 1577.96 2866.46 1577.96 2868.39 1578.69 2869.74 1580.13 2871.09 1581.58 2871.77 1583.58 2871.77 1586.15 2871.77 1587.85 2871.37 1590.27 2870.59 1593.41L2867.96 1604.02C2867.23 1606.97 2866.86 1609.05 2866.86 1610.27 2866.86 1611.35 2867.04 1612.13 2867.39 1612.62 2867.74 1613.1 2868.29 1613.35 2869.05 1613.35 2869.86 1613.35 2870.73 1613.01 2871.64 1612.35 2872.56 1611.69 2873.86 1610.43 2875.53 1608.56L2877.84 1610.83C2875.25 1613.56 2873.12 1615.44 2871.46 1616.47 2869.8 1617.49 2867.93 1618.01 2865.85 1618.01 2864.09 1618.01 2862.69 1617.38 2861.65 1616.14 2860.61 1614.9 2860.09 1613.29 2860.09 1611.32 2860.09 1609.56 2860.54 1606.98 2861.43 1603.58L2863.17 1596.57C2863.8 1594.05 2864.21 1592.17 2864.43 1590.91 2864.65 1589.66 2864.75 1588.68 2864.75 1587.98 2864.75 1586.06 2864.44 1584.7 2863.82 1583.9 2863.2 1583.11 2862.19 1582.71 2860.78 1582.71 2859.68 1582.71 2858.45 1583.17 2857.09 1584.08 2855.74 1585 2854.33 1586.4 2852.84 1588.28 2851.35 1590.16 2850.17 1591.95 2849.29 1593.67 2848.42 1595.39 2847.72 1597.43 2847.21 1599.81L2843.52 1617.36 2836.51 1617.36 2846.92 1571.03C2847.57 1568.14 2847.9 1566.14 2847.9 1565.04 2847.9 1563.9 2847.55 1563.1 2846.86 1562.65 2846.17 1562.19 2844.94 1561.93 2843.15 1561.88L2843.64 1559.77Z" fill-rule="evenodd"/><text fill="#000000" fill-opacity="0" font-family="Arial,Arial_MSFontService,sans-serif" font-size="58.6025" x="2836.51" y="1610.68">ℎ</text><path d="M2884.21 1596.2 2910.12 1596.2 2910.12 1597.63 2892.64 1634.35 2888.08 1634.35 2888.08 1633.01 2904.11 1601.85 2904.11 1601.41 2891.48 1601.41C2890.61 1601.41 2889.93 1601.48 2889.44 1601.62 2888.95 1601.76 2888.52 1601.95 2888.14 1602.21 2887.98 1602.35 2887.85 1602.49 2887.73 1602.64 2887.61 1602.79 2887.49 1602.99 2887.37 1603.24 2887.25 1603.49 2887.13 1603.82 2887 1604.22 2886.87 1604.63 2886.71 1605.15 2886.53 1605.79L2883.56 1605.79Z" fill-rule="evenodd"/><text fill="#000000" fill-opacity="0" font-family="Arial,Arial_MSFontService,sans-serif" font-size="38.1548" x="2883.56" y="1629.58">7</text><path d="M3043.91 1238.64 3046.26 1238.64 3039.29 1266.72 3039.77 1266.88C3042.34 1263.48 3044.77 1261.02 3047.05 1259.49 3049.33 1257.96 3051.63 1257.2 3053.96 1257.2 3056.47 1257.2 3058.4 1257.92 3059.75 1259.37 3061.1 1260.81 3061.78 1262.82 3061.78 1265.39 3061.78 1267.09 3061.39 1269.51 3060.6 1272.64L3057.97 1283.26C3057.24 1286.2 3056.88 1288.28 3056.88 1289.5 3056.88 1290.58 3057.05 1291.36 3057.4 1291.85 3057.75 1292.34 3058.31 1292.58 3059.06 1292.58 3059.88 1292.58 3060.74 1292.25 3061.66 1291.59 3062.58 1290.92 3063.87 1289.66 3065.55 1287.8L3067.86 1290.07C3065.27 1292.8 3063.14 1294.67 3061.48 1295.7 3059.81 1296.73 3057.94 1297.24 3055.86 1297.24 3054.11 1297.24 3052.71 1296.62 3051.67 1295.38 3050.63 1294.13 3050.11 1292.53 3050.11 1290.55 3050.11 1288.8 3050.55 1286.22 3051.45 1282.81L3053.19 1275.8C3053.81 1273.29 3054.23 1271.4 3054.44 1270.15 3054.66 1268.89 3054.77 1267.91 3054.77 1267.21 3054.77 1265.29 3054.46 1263.93 3053.84 1263.14 3053.22 1262.34 3052.2 1261.94 3050.8 1261.94 3049.69 1261.94 3048.46 1262.4 3047.11 1263.32 3045.76 1264.24 3044.34 1265.64 3042.85 1267.51 3041.37 1269.39 3040.19 1271.19 3039.31 1272.9 3038.43 1274.62 3037.73 1276.67 3037.22 1279.04L3033.53 1296.59 3026.52 1296.59 3036.94 1250.27C3037.58 1247.38 3037.91 1245.38 3037.91 1244.27 3037.91 1243.14 3037.56 1242.34 3036.88 1241.88 3036.19 1241.42 3034.95 1241.16 3033.17 1241.11L3033.65 1239Z" fill-rule="evenodd"/><text fill="#000000" fill-opacity="0" font-family="Arial,Arial_MSFontService,sans-serif" font-size="58.6025" x="3026.52" y="1289.91">ℎ</text><path d="M3086.29 1295.24C3084.94 1295.24 3083.77 1295.42 3082.79 1295.79 3081.81 1296.15 3081 1296.67 3080.36 1297.34 3079.73 1298 3079.26 1298.81 3078.98 1299.75 3078.69 1300.69 3078.54 1301.74 3078.54 1302.89 3078.54 1304.12 3078.7 1305.24 3079.02 1306.24 3079.34 1307.24 3079.83 1308.1 3080.5 1308.82 3081.16 1309.53 3081.98 1310.08 3082.97 1310.47 3083.95 1310.86 3085.1 1311.05 3086.41 1311.05 3087.78 1311.05 3088.93 1310.85 3089.88 1310.44 3090.82 1310.03 3091.59 1309.48 3092.2 1308.79 3092.81 1308.09 3093.25 1307.28 3093.53 1306.35 3093.8 1305.41 3093.94 1304.44 3093.94 1303.43 3093.94 1302.14 3093.76 1300.98 3093.41 1299.96 3093.05 1298.93 3092.54 1298.08 3091.87 1297.4 3091.21 1296.71 3090.4 1296.18 3089.45 1295.8 3088.49 1295.42 3087.44 1295.24 3086.29 1295.24ZM3086.35 1277.75C3083.97 1277.75 3082.15 1278.36 3080.9 1279.58 3079.65 1280.81 3079.02 1282.54 3079.02 1284.78 3079.02 1285.93 3079.16 1286.97 3079.45 1287.89 3079.74 1288.82 3080.19 1289.61 3080.81 1290.28 3081.42 1290.94 3082.2 1291.44 3083.13 1291.78 3084.06 1292.12 3085.17 1292.29 3086.44 1292.29 3087.81 1292.29 3088.95 1292.1 3089.88 1291.72 3090.8 1291.34 3091.55 1290.83 3092.11 1290.17 3092.68 1289.52 3093.09 1288.76 3093.35 1287.89 3093.61 1287.03 3093.73 1286.11 3093.73 1285.14 3093.73 1283.95 3093.55 1282.9 3093.18 1281.98 3092.82 1281.07 3092.31 1280.29 3091.66 1279.64 3091.02 1279 3090.24 1278.52 3089.34 1278.21 3088.44 1277.91 3087.44 1277.75 3086.35 1277.75ZM3086.44 1274.86C3088.76 1274.86 3090.76 1275.1 3092.44 1275.58 3094.12 1276.05 3095.5 1276.71 3096.58 1277.56 3097.66 1278.4 3098.47 1279.41 3098.99 1280.58 3099.52 1281.75 3099.78 1283.05 3099.78 1284.48 3099.78 1286.51 3099.23 1288.24 3098.11 1289.67 3097 1291.1 3095.31 1292.33 3093.05 1293.36 3093.05 1293.42 3093.05 1293.5 3093.06 1293.6 3093.07 1293.7 3093.08 1293.78 3093.08 1293.84 3095.42 1294.67 3097.17 1295.89 3098.32 1297.5 3099.47 1299.11 3100.05 1300.96 3100.05 1303.04 3100.05 1304.69 3099.72 1306.19 3099.07 1307.55 3098.41 1308.91 3097.47 1310.08 3096.24 1311.07 3095.01 1312.05 3093.53 1312.8 3091.8 1313.33 3090.07 1313.86 3088.12 1314.12 3085.96 1314.12 3083.94 1314.12 3082.09 1313.88 3080.44 1313.41 3078.78 1312.93 3077.36 1312.23 3076.18 1311.32 3074.99 1310.41 3074.08 1309.29 3073.44 1307.97 3072.79 1306.65 3072.47 1305.16 3072.47 1303.52 3072.47 1302.33 3072.63 1301.27 3072.96 1300.34 3073.29 1299.42 3073.75 1298.59 3074.34 1297.86 3074.94 1297.12 3075.67 1296.47 3076.53 1295.89 3077.4 1295.32 3078.37 1294.76 3079.44 1294.22L3079.44 1293.84C3077.21 1292.88 3075.58 1291.67 3074.54 1290.19 3073.5 1288.71 3072.97 1286.95 3072.97 1284.9 3072.93 1283.41 3073.26 1282.05 3073.96 1280.81 3074.65 1279.56 3075.61 1278.51 3076.83 1277.63 3078.05 1276.76 3079.5 1276.08 3081.17 1275.59 3082.83 1275.11 3084.59 1274.86 3086.44 1274.86Z" fill-rule="evenodd"/><text fill="#000000" fill-opacity="0" font-family="Arial,Arial_MSFontService,sans-serif" font-size="39.2568" x="3072.47" y="1309.21">8</text><path d="M34.375-6.8749 127.217-6.87464C131.014-6.87463 134.092-3.79658 134.092 0.000380396 134.092 3.79734 131.014 6.87537 127.217 6.87536L34.375 6.8751C30.578 6.87509 27.5 3.79704 27.5 7.80128e-05 27.5-3.79688 30.5781-6.87491 34.375-6.8749ZM41.2499 20.6251 0 0 41.2501-20.6249Z" fill="#F09252" transform="matrix(-1 0 0 1 3812.22 1276)"/><rect x="2955" y="1470" width="210" height="373" fill="#455054"/><text fill="#FFFFFF" font-family="Calibri,Calibri_MSFontService,sans-serif" font-weight="400" font-size="83" transform="matrix(6.12323e-17 1 -1 6.12323e-17 3032.48 1581)">RNN</text><text fill="#C55A11" font-family="Calibri,Calibri_MSFontService,sans-serif" font-weight="400" font-size="73" transform="matrix(1 0 0 1 3829.42 1516)">a</text><text fill="#C55A11" font-family="Calibri,Calibri_MSFontService,sans-serif" font-weight="400" font-size="73" transform="matrix(1 0 0 1 4232.89 1516)">zoo</text><text fill="#F4B183" font-family="Calibri,Calibri_MSFontService,sans-serif" font-weight="400" font-size="64" transform="matrix(1 0 0 1 4125.31 1089)">wallet</text><text fill="#F09252" font-family="Calibri,Calibri_MSFontService,sans-serif" font-weight="700" font-size="64" transform="matrix(1 0 0 1 3749.87 963)">umbrella</text><path d="M34.375-6.87495 261.075-6.87464C264.872-6.87463 267.95-3.79659 267.95 0.000370396 267.95 3.79733 264.872 6.87537 261.075 6.87536L34.375 6.87505C30.578 6.87504 27.5 3.797 27.5 3.80142e-05 27.5-3.79692 30.5781-6.87496 34.375-6.87495ZM41.25 20.6251 0 0 41.25-20.6249Z" fill="#AFABAB" transform="matrix(-1 0 0 1 1824.07 1665)"/><rect x="1469" y="1472" width="211" height="373" fill="#455054"/><text fill="#FFFFFF" font-family="Calibri,Calibri_MSFontService,sans-serif" font-weight="400" font-size="83" transform="matrix(6.12323e-17 1 -1 6.12323e-17 1546.59 1583)">RNN</text><path d="M3862.78 1424.84 4263.94 1424.84 4263.94 1435.16 3862.78 1435.16ZM3867.94 1445.47 3837 1430 3867.94 1414.53ZM4258.79 1414.53 4289.72 1430 4258.79 1445.47Z" fill="#C55A11"/><rect x="3845.5" y="1080.5" width="64" height="294" stroke="#C55A11" stroke-width="4.58333" stroke-miterlimit="8" fill="#F09252"/><rect x="3909.5" y="1238.5" width="64" height="136" stroke="#C55A11" stroke-width="4.58333" stroke-miterlimit="8" fill="#F4B183"/><rect x="4040.5" y="1238.5" width="64" height="136" stroke="#C55A11" stroke-width="4.58333" stroke-miterlimit="8" fill="#F4B183"/><rect x="4104.5" y="1257.5" width="64.0005" height="116" stroke="#C55A11" stroke-width="4.58333" stroke-miterlimit="8" fill="#F4B183"/><rect x="4168.5" y="1213.5" width="63" height="160" stroke="#C55A11" stroke-width="4.58333" stroke-miterlimit="8" fill="#F4B183"/><rect x="4231.5" y="1347.5" width="64" height="26.0001" stroke="#C55A11" stroke-width="4.58333" stroke-miterlimit="8" fill="#F4B183"/><rect x="3973.5" y="1311.5" width="67" height="62.0002" stroke="#C55A11" stroke-width="4.58333" stroke-miterlimit="8" fill="#F4B183"/><path d="M5.15635 25.7812 5.15661 93.3986C5.15662 96.2463 2.8481 98.5548 0.000380816 98.5548-2.84734 98.5548-5.15588 96.2463-5.15589 93.3986L-5.15615 25.7813C-5.15616 22.9336-2.84764 20.625 7.9695e-05 20.625 2.8478 20.625 5.15634 22.9335 5.15635 25.7812ZM-15.4686 30.9376 0 0 15.4689 30.9374Z" fill="#F09252" transform="matrix(1 0 0 -1 3877 1079.4)"/><path d="M5.15635 25.7812 5.15661 93.3986C5.15662 96.2463 2.8481 98.5548 0.000380816 98.5548-2.84734 98.5548-5.15588 96.2463-5.15589 93.3986L-5.15615 25.7813C-5.15616 22.9336-2.84764 20.625 7.9695e-05 20.625 2.8478 20.625 5.15634 22.9335 5.15635 25.7812ZM-15.4686 30.9376 0 0 15.4689 30.9374Z" fill="#F4B183" transform="matrix(1 0 0 -1 4200 1213.4)"/><path d="M34.3861-6.81909 118.969-6.68155C122.766-6.67538 125.839-3.59234 125.833 0.204618 125.827 4.00157 122.743 7.0746 118.947 7.06843L34.3638 6.93089C30.5668 6.92472 27.4938 3.84167 27.5 0.044718 27.5061-3.75224 30.5892-6.82527 34.3861-6.81909ZM41.2164 20.692 0 0 41.2835-20.5579Z" fill="#AFABAB" transform="matrix(-1 0 0 1 3247.96 1280)"/><path d="M3268 1235.84C3268 1206.1 3292.1 1182 3321.84 1182L3590.16 1182C3619.9 1182 3644 1206.1 3644 1235.84L3644 1316.16C3644 1345.9 3619.9 1370 3590.16 1370L3321.84 1370C3292.1 1370 3268 1345.9 3268 1316.16Z" fill="#42B0C2" fill-rule="evenodd"/><text fill="#FFFFFF" font-family="Calibri,Calibri_MSFontService,sans-serif" font-style="italic" font-weight="700" font-size="73" transform="matrix(1 0 0 1 3331.99 1288)">softmax</text></g></svg>